<svg id="SvgjsSvg1020" width="288" height="288" xmlns="http://www.w3.org/2000/svg" version="1.1" xmlns:xlink="http://www.w3.org/1999/xlink" xmlns:svgjs="http://svgjs.com/svgjs"><defs id="SvgjsDefs1021"></defs><g id="SvgjsG1022" transform="matrix(1,0,0,1,0,0)"><svg xmlns="http://www.w3.org/2000/svg" enable-background="new 0 0 24 24" viewBox="0 0 24 24" width="288" height="288"><polygon points="2.371 6.006 2.372 6.005 2.371 6.005" fill="#4c4c4c" class="color000 svgShape"></polygon><polygon points="12.434 18.74 18.513 15.452 18.513 8.939 12.434 12.391" fill="#4c4c4c" class="color000 svgShape"></polygon><polygon points="23 6.39 19.381 8.444 19.381 15.839 23 17.896" fill="#4c4c4c" class="color000 svgShape"></polygon><polygon points="18.105 8.185 12.002 4.883 5.899 8.185 12.002 11.65" fill="#4c4c4c" class="color000 svgShape"></polygon><polygon points="18.597 16.38 12.434 19.714 12.434 24 22.324 18.498" fill="#4c4c4c" class="color000 svgShape"></polygon><polygon points="11.567 19.714 5.405 16.38 1.677 18.498 11.567 24" fill="#4c4c4c" class="color000 svgShape"></polygon><polygon points="1 17.896 4.619 15.839 4.619 8.444 1 6.39" fill="#4c4c4c" class="color000 svgShape"></polygon><polygon points="5.019 7.686 11.566 4.144 11.566 0 1.424 5.644" fill="#4c4c4c" class="color000 svgShape"></polygon><polygon points="11.567 12.391 5.488 8.939 5.488 15.452 11.567 18.74" fill="#4c4c4c" class="color000 svgShape"></polygon><polygon points="12.434 4.144 18.981 7.687 22.577 5.644 12.434 0" fill="#4c4c4c" class="color000 svgShape"></polygon></svg></g></svg>